<?xml version="1.0" encoding="utf-8"?>
<!-- Generator: Adobe Illustrator 23.0.1, SVG Export Plug-In . SVG Version: 6.00 Build 0)  -->
<svg version="1.1"
	 id="Layer_1" xmlns:cc="http://creativecommons.org/ns#" xmlns:dc="http://purl.org/dc/elements/1.1/" xmlns:inkscape="http://www.inkscape.org/namespaces/inkscape" xmlns:rdf="http://www.w3.org/1999/02/22-rdf-syntax-ns#" xmlns:sodipodi="http://sodipodi.sourceforge.net/DTD/sodipodi-0.dtd" xmlns:svg="http://www.w3.org/2000/svg"
	 xmlns="http://www.w3.org/2000/svg" xmlns:xlink="http://www.w3.org/1999/xlink" x="0px" y="0px" viewBox="0 0 100 100"
	 style="enable-background:new 0 0 100 100;" xml:space="preserve">
<g transform="translate(0,-952.36218)">
	<path d="M23.2,956.6v83.9h67.3v-62.6H71.1c-0.9,0-1.8-0.8-1.8-1.8v-19.5H23.2z M72.9,958.6v15.7h15.5L72.9,958.6z M11.4,968.4v83.9
		h67.3v-8.3H21.5c-0.9,0-1.8-0.8-1.8-1.8v-73.8H11.4z M37.5,979C37.5,979,37.7,979,37.5,979c0.2,0,0.4,0,0.5,0h18.9
		c0.9,0,1.8,0.8,1.8,1.8c0,0.9-0.8,1.8-1.8,1.8l0,0H38c-0.9,0.1-1.9-0.6-2-1.5C35.9,980.1,36.6,979.1,37.5,979z M37.5,993.2
		C37.5,993.2,37.7,993.2,37.5,993.2c0.2,0,0.4,0,0.5,0h37.8c0.9,0,1.8,0.8,1.8,1.8c0,0.9-0.8,1.8-1.8,1.8l0,0H38
		c-0.9,0.1-1.9-0.6-2-1.5C35.9,994.2,36.6,993.3,37.5,993.2z M37.5,1007.4C37.5,1007.4,37.7,1007.4,37.5,1007.4c0.2,0,0.4,0,0.5,0
		h37.8c0.9,0,1.8,0.8,1.8,1.8c0,0.9-0.8,1.8-1.8,1.8l0,0H38c-0.9,0.1-1.9-0.6-2-1.5C35.9,1008.4,36.6,1007.5,37.5,1007.4z
		 M37.5,1021.5C37.5,1021.5,37.7,1021.5,37.5,1021.5c0.2,0,0.4,0,0.5,0h37.8c0.9,0,1.8,0.8,1.8,1.8c0,0.9-0.8,1.8-1.8,1.8l0,0H38
		c-0.9,0.1-1.9-0.6-2-1.5C35.9,1022.5,36.6,1021.6,37.5,1021.5z"/>
</g>
</svg>
