<?xml version="1.0" encoding="utf-8"?>
<!-- Generator: Adobe Illustrator 23.0.1, SVG Export Plug-In . SVG Version: 6.00 Build 0)  -->
<svg version="1.1" id="Layer_1" xmlns="http://www.w3.org/2000/svg" xmlns:xlink="http://www.w3.org/1999/xlink" x="0px" y="0px"
	 viewBox="0 0 90 90" style="enable-background:new 0 0 90 90;" xml:space="preserve">
<g>
	<g>
		<path d="M75.1,39.5v29c0,3.6-2.9,6.5-6.5,6.5H21.4c-3.6,0-6.5-2.9-6.5-6.5V21.4c0-3.6,2.9-6.5,6.5-6.5h35L65.3,6
			c0.8-0.8,0.2-2-0.8-2H21.4C11.8,4,4,11.8,4,21.4v47.1C4,78.2,11.8,86,21.4,86h47.1C78.2,86,86,78.2,86,68.6V32.1
			c0-1.3-1.6-1.9-2.5-1L75.1,39.5z"/>
	</g>
	<g>
		<path d="M85.8,6.9L85.8,6.9c-3-3-8-3-11,0l-4.2,4.2l11,11l4.2-4.2C88.8,14.9,88.8,9.9,85.8,6.9z"/>
		<rect x="69.9" y="12.6" transform="matrix(0.7071 -0.7071 0.7071 0.7071 6.7365 57.0315)" width="4.6" height="15.6"/>
		<path d="M49.3,54.4l24.3-24.3l-11-11L29,52.6l-3.9,14.5L40,63.6l0,0l0,0l8.4-8.4L49.3,54.4L49.3,54.4z M29.5,60.2l2.1-5.5l6.6,6.7
			L32.4,63L29.5,60.2z"/>
	</g>
</g>
</svg>
