<?xml version="1.0" encoding="utf-8"?>
<!-- Generator: Adobe Illustrator 23.0.1, SVG Export Plug-In . SVG Version: 6.00 Build 0)  -->
<svg version="1.1" xmlns="http://www.w3.org/2000/svg" xmlns:xlink="http://www.w3.org/1999/xlink" x="0px" y="0px"
	 viewBox="0 0 100 100" style="enable-background:new 0 0 100 100;" xml:space="preserve">
<g id="Layer_2">
</g>
<g id="Layer_1">
	<g>
		<path d="M19.6,88.5c0,5,4,9,9,9h42.7c5,0,9-4,9-9V28.9H19.6V88.5z M64.2,39.9H69v46.6h-4.8V39.9z M47.6,39.9h4.8v46.6h-4.8V39.9z
			 M31.1,39.9h4.8v46.6h-4.8C31.1,86.5,31.1,39.9,31.1,39.9z"/>
		<path d="M83.8,12.9H63l-1.2-5.6c-0.6-2.9-3.1-4.9-6.1-4.9H44.3c-2.9,0-5.4,2-6.1,4.9L37,12.9H16.2c-1,0-1.8,0.8-1.8,1.8v7.6
			c0,1,0.8,1.8,1.8,1.8h67.7c1,0,1.8-0.8,1.8-1.8v-7.6C85.6,13.7,84.8,12.9,83.8,12.9z M42.9,8.4c0.1-0.7,0.7-1.1,1.4-1.1h11.4
			c0.7,0,1.3,0.5,1.4,1.1l1,4.5H41.9L42.9,8.4z"/>
	</g>
</g>
</svg>
